<svg width="75" height="2278" fill="none" xmlns="http://www.w3.org/2000/svg"><g clip-path="url(#a)"><path d="M19.97 2277.12a3.003 3.003 0 004.243 0l19.092-19.09a2.997 2.997 0 000-4.24 3.003 3.003 0 00-4.242 0l-16.971 16.97-16.97-16.97a3.003 3.003 0 00-4.243 0 2.997 2.997 0 000 4.24l19.092 19.09zM22.093 0h-3v2275h6V0h-3z" fill="#fff"/><path d="M22.092 250.5h52M23.092 746.5h51M25.092 1173.5h37M26.092 1612.5h37M27.092 1944.5h36" stroke="#fff" stroke-width="3"/></g><defs><clipPath id="a"><path fill="#fff" d="M0 0H75V2278H0z"/></clipPath></defs></svg>