<svg width="35" height="35" fill="none" xmlns="http://www.w3.org/2000/svg"><path d="M17.504 8.526A8.958 8.958 0 008.532 17.5a8.958 8.958 0 008.972 8.974 8.958 8.958 0 008.971-8.974 8.958 8.958 0 00-8.971-8.974zm0 14.808A5.844 5.844 0 0111.67 17.5a5.839 5.839 0 015.833-5.834 5.839 5.839 0 015.833 5.834 5.844 5.844 0 01-5.833 5.834zM28.935 8.159a2.088 2.088 0 01-2.093 2.093 2.093 2.093 0 112.093-2.093zm5.942 2.125c-.133-2.804-.773-5.288-2.826-7.334C30.005.904 27.52.264 24.719.123c-2.89-.164-11.549-.164-14.438 0-2.795.133-5.278.773-7.331 2.82C.896 4.988.264 7.472.123 10.275c-.164 2.89-.164 11.55 0 14.44.133 2.804.773 5.288 2.827 7.334 2.053 2.046 4.528 2.687 7.331 2.827 2.89.164 11.549.164 14.438 0 2.803-.133 5.286-.773 7.332-2.827 2.045-2.046 2.685-4.53 2.826-7.334.164-2.89.164-11.543 0-14.432zm-3.732 17.533a5.906 5.906 0 01-3.326 3.327c-2.304.914-7.77.703-10.315.703-2.546 0-8.02.203-10.315-.703a5.906 5.906 0 01-3.326-3.327c-.913-2.304-.703-7.77-.703-10.317 0-2.546-.203-8.02.703-10.317A5.906 5.906 0 017.19 3.856c2.304-.914 7.77-.703 10.315-.703s8.019-.203 10.314.703a5.906 5.906 0 013.327 3.327c.913 2.304.702 7.771.702 10.317 0 2.546.211 8.02-.702 10.317z" fill="#000"/></svg>