<svg width="39" height="35" fill="none" xmlns="http://www.w3.org/2000/svg"><path d="M34.991 8.587c.025.377.025.754.025 1.13 0 11.495-8.042 24.74-22.742 24.74-4.528 0-8.735-1.428-12.274-3.904.643.08 1.262.108 1.93.108 3.737 0 7.177-1.373 9.924-3.715-3.515-.08-6.46-2.584-7.474-6.03.495.08.99.135 1.51.135.717 0 1.435-.108 2.103-.296-3.662-.808-6.41-4.307-6.41-8.534v-.107a7.567 7.567 0 003.614 1.103c-2.153-1.561-3.564-4.226-3.564-7.241 0-1.615.396-3.096 1.089-4.388 3.935 5.276 9.85 8.722 16.481 9.099a10.645 10.645 0 01-.198-1.992C19.005 3.903 22.569 0 26.998 0c2.301 0 4.38 1.05 5.84 2.746a14.985 14.985 0 005.073-2.1c-.594 2.019-1.856 3.715-3.514 4.792 1.609-.189 3.168-.673 4.603-1.346a18.083 18.083 0 01-4.009 4.495z" fill="#000"/></svg>